# xmcd
#
# Track frame offsets:
# 150
# 15442
# 27887
# 40352
# 56060
# 66435
# 68937
# 85712
# 95687
# 109295
# 123385
# 137862
# 151082
# 164260
# 179375
# 197242
# 209707
# 219300
# 229722
# 242875
# 257755
# 271355
# 281920
# 294475
# 306395
#
# Disc length: 4284 seconds
#
# Revision: 1
# Processed by: cddbd v1.5.2PL0 Copyright (c) Steve Scherf et al.
# Submitted via: Axialis_AX_CDPlayer 2.6
#
DISCID=8210ba19
DTITLE=Ralph Stanley - Live At McClure
DYEAR=1992
DGENRE=Bluegrass
TTITLE0=I Hear A Choo-Choo Coming
TTITLE1=I'm On My Way Back To The Old Home
TTITLE2=Stone Walls and Steel Bars
TTITLE3=Cotton Eyed Joe
TTITLE4=Eatin' Out Of Your Hand
TTITLE5=Record Commercial
TTITLE6=Mana Don't Allow
TTITLE7=Blue Ridge Cabin Home
TTITLE8=Green Pastures In The Sky
TTITLE9=East Virginia Blues
TTITLE10=John Dig A Hole
TTITLE11=Pike Country Breakdown
TTITLE12=Nine Pound Hammer
TTITLE13=Nobody's Love Like Mine
TTITLE14=The White Dove
TTITLE15=I'll Just Go Away
TTITLE16=Satisfied
TTITLE17=When The Saints Go Marching In
TTITLE18=Whoa Mule
TTITLE19=Matterhorn
TTITLE20=Legend Of The Rebel Soldier
TTITLE21=Something That The World Didn't Give Me
TTITLE22=Pass Me Not
TTITLE23=Little Black Train
TTITLE24=Can't You Hear Me Calling
EXTD=
EXTT0=
EXTT1=
EXTT2=
EXTT3=
EXTT4=
EXTT5=
EXTT6=
EXTT7=
EXTT8=
EXTT9=
EXTT10=
EXTT11=
EXTT12=
EXTT13=
EXTT14=
EXTT15=
EXTT16=
EXTT17=
EXTT18=
EXTT19=
EXTT20=
EXTT21=
EXTT22=
EXTT23=
EXTT24=
PLAYORDER=
